<svg width="961" height="579" viewBox="0 0 961 579" fill="none" xmlns="http://www.w3.org/2000/svg">
<g id="undraw_Payments_re_77x0 1">
<path id="iconInside" d="M179 141.128C122.05 156.173 70.9264 109.307 62 65.8286L65.965 65.0704C113.966 53.721 167.548 90.4227 179 141.128Z" fill="white"/>
<path id="chipOutside" d="M728.792 447C715.835 447 705.532 443.043 698.164 435.237C681.512 417.595 682.555 383.589 683.393 356.264C683.637 348.315 683.867 340.806 683.634 334.516L683.633 334.421C683.692 322.132 688.47 310.363 696.929 301.672C705.388 292.98 716.845 288.067 728.811 288H836.226C849.166 288 859.459 291.951 866.822 299.747C883.474 317.375 882.442 351.373 881.614 378.691C881.372 386.657 881.143 394.182 881.381 400.483C881.339 412.79 876.567 424.582 868.102 433.294C859.637 442.005 848.165 446.931 836.181 447H728.792ZM688.144 334.388C688.38 340.828 688.148 348.397 687.902 356.41C687.091 382.86 686.081 415.779 701.403 432.012C707.98 438.98 716.939 442.366 728.791 442.366H836.174C846.951 442.308 857.271 437.885 864.89 430.058C872.51 422.231 876.815 411.633 876.871 400.565C876.629 394.199 876.86 386.596 877.104 378.546C877.906 352.102 878.905 319.191 863.584 302.973C857.013 296.016 848.062 292.633 836.227 292.633H728.818C718.052 292.695 707.743 297.114 700.129 304.93C692.515 312.747 688.209 323.332 688.144 334.388Z" fill="white"/>
<path id="iconOutside" d="M155.577 146C137.132 145.88 119.089 140.19 103.499 129.578C80.6595 114.298 63.4141 89.8263 58.4932 65.7159L58 63.2991L64.1722 62.1099C112.758 50.5651 167.711 87.7684 179.484 140.208L180 142.508L177.867 143.076C170.574 145.019 163.09 146.001 155.577 146ZM63.3429 67.1026C68.6444 89.2202 84.7339 111.423 105.831 125.537C126.229 139.592 150.949 144.431 174.636 139.005C162.319 90.1492 110.743 55.8655 65.083 66.7659L63.3429 67.1026Z" fill="black"/>
<g id="validThru">
<mask id="path-4-inside-1" fill="white">
<path d="M387.229 418C372.686 418 360.871 411.098 353.934 398.508C350.046 391.183 348.002 382.919 348 374.514C347.998 366.108 350.036 357.843 353.92 350.516C360.968 337.71 373.065 330.763 388.004 331.006H529.03C543.919 330.805 556.025 337.72 563.077 350.541C566.961 357.867 569.001 366.13 569 374.534C568.999 382.939 566.958 391.201 563.073 398.526C556.024 411.317 543.921 418.149 528.996 417.994H387.968C387.721 417.998 387.475 418 387.229 418ZM387.312 335.715C374.342 335.715 363.865 341.798 357.759 352.893C354.261 359.494 352.424 366.94 352.426 374.512C352.429 382.085 354.27 389.529 357.773 396.128C363.982 407.4 374.673 413.5 387.935 413.279H529.03C542.306 413.504 553.03 407.405 559.234 396.147C562.734 389.548 564.573 382.104 564.574 374.532C564.574 366.961 562.736 359.517 559.237 352.917C553.028 341.629 542.302 335.552 529.061 335.721H387.958C387.742 335.718 387.526 335.715 387.312 335.715H387.312Z"/>
</mask>
<path d="M387.229 418C372.686 418 360.871 411.098 353.934 398.508C350.046 391.183 348.002 382.919 348 374.514C347.998 366.108 350.036 357.843 353.92 350.516C360.968 337.71 373.065 330.763 388.004 331.006H529.03C543.919 330.805 556.025 337.72 563.077 350.541C566.961 357.867 569.001 366.13 569 374.534C568.999 382.939 566.958 391.201 563.073 398.526C556.024 411.317 543.921 418.149 528.996 417.994H387.968C387.721 417.998 387.475 418 387.229 418ZM387.312 335.715C374.342 335.715 363.865 341.798 357.759 352.893C354.261 359.494 352.424 366.94 352.426 374.512C352.429 382.085 354.27 389.529 357.773 396.128C363.982 407.4 374.673 413.5 387.935 413.279H529.03C542.306 413.504 553.03 407.405 559.234 396.147C562.734 389.548 564.573 382.104 564.574 374.532C564.574 366.961 562.736 359.517 559.237 352.917C553.028 341.629 542.302 335.552 529.061 335.721H387.958C387.742 335.718 387.526 335.715 387.312 335.715H387.312Z" fill="white"/>
<path d="M387.229 418V419H387.231L387.229 418ZM353.934 398.508L353.051 398.976L353.054 398.983L353.058 398.99L353.934 398.508ZM353.92 350.516L353.044 350.034L353.04 350.041L353.036 350.047L353.92 350.516ZM388.004 331.006L387.988 332.006L387.996 332.006H388.004V331.006ZM529.03 331.006V332.006L529.043 332.006L529.03 331.006ZM563.077 350.541L563.96 350.073L563.957 350.066L563.953 350.059L563.077 350.541ZM563.073 398.526L563.949 399.009L563.952 399.002L563.956 398.995L563.073 398.526ZM528.996 417.994L529.007 416.994H528.996V417.994ZM387.968 417.994V416.994L387.954 416.994L387.968 417.994ZM357.759 352.893L356.883 352.411L356.88 352.418L356.876 352.424L357.759 352.893ZM357.773 396.128L356.89 396.597L356.893 396.604L356.897 396.611L357.773 396.128ZM387.935 413.279V412.279H387.927L387.918 412.28L387.935 413.279ZM529.03 413.279L529.047 412.28L529.038 412.279H529.03V413.279ZM559.234 396.147L560.11 396.629L560.114 396.622L560.118 396.615L559.234 396.147ZM559.237 352.917L560.12 352.448L560.117 352.442L560.113 352.435L559.237 352.917ZM529.061 335.721V336.721L529.074 336.721L529.061 335.721ZM387.958 335.721L387.942 336.721L387.95 336.721H387.958V335.721ZM387.229 417C373.044 417 361.568 410.291 354.81 398.025L353.058 398.99C360.174 411.906 372.328 419 387.229 419V417ZM354.817 398.039C351.007 390.86 349.002 382.758 349 374.513L347 374.514C347.003 383.081 349.085 391.505 353.051 398.976L354.817 398.039ZM349 374.513C348.998 366.269 350.997 358.165 354.804 350.984L353.036 350.047C349.075 357.521 346.997 365.947 347 374.514L349 374.513ZM354.796 350.998C361.661 338.524 373.41 331.769 387.988 332.006L388.021 330.006C372.719 329.758 360.274 336.896 353.044 350.034L354.796 350.998ZM388.004 332.006H529.03V330.006H388.004V332.006ZM529.043 332.006C543.574 331.809 555.332 338.535 562.201 351.023L563.953 350.059C556.718 336.905 544.264 329.8 529.016 330.006L529.043 332.006ZM562.193 351.01C566 358.189 568.001 366.291 568 374.534L570 374.534C570.001 365.969 567.922 357.545 563.96 350.073L562.193 351.01ZM568 374.534C567.999 382.777 565.997 390.879 562.189 398.058L563.956 398.995C567.919 391.523 569.999 383.1 570 374.534L568 374.534ZM562.197 398.043C555.334 410.497 543.58 417.145 529.007 416.994L528.986 418.994C544.262 419.152 556.714 412.136 563.949 399.009L562.197 398.043ZM528.996 416.994H387.968V418.994H528.996V416.994ZM387.954 416.994C387.711 416.998 387.469 417 387.228 417L387.231 419C387.48 419 387.731 418.998 387.982 418.994L387.954 416.994ZM387.312 334.715C373.989 334.715 363.171 340.986 356.883 352.411L358.636 353.375C364.56 342.609 374.695 336.715 387.312 336.715V334.715ZM356.876 352.424C353.3 359.172 351.424 366.779 351.426 374.513L353.426 374.512C353.424 367.101 355.222 359.816 358.643 353.361L356.876 352.424ZM351.426 374.513C351.429 382.246 353.309 389.852 356.89 396.597L358.656 395.66C355.231 389.207 353.429 381.924 353.426 374.512L351.426 374.513ZM356.897 396.611C363.29 408.217 374.331 414.506 387.952 414.279L387.918 412.28C375.014 412.495 364.673 406.582 358.649 395.646L356.897 396.611ZM387.935 414.279H529.03V412.279H387.935V414.279ZM529.013 414.279C542.645 414.51 553.72 408.225 560.11 396.629L558.359 395.664C552.34 406.586 541.966 412.498 529.047 412.28L529.013 414.279ZM560.118 396.615C563.696 389.87 565.573 382.265 565.574 374.532L563.574 374.532C563.573 381.943 561.773 389.225 558.351 395.678L560.118 396.615ZM565.574 374.532C565.574 366.8 563.697 359.194 560.12 352.448L558.353 353.385C561.775 359.839 563.574 367.122 563.574 374.532L565.574 374.532ZM560.113 352.435C553.719 340.81 542.642 334.547 529.048 334.721L529.074 336.721C541.961 336.556 552.338 342.449 558.361 353.399L560.113 352.435ZM529.061 334.721H387.958V336.721H529.061V334.721ZM387.974 334.721C387.755 334.718 387.533 334.715 387.312 334.715V336.715C387.519 336.715 387.73 336.717 387.942 336.721L387.974 334.721ZM387.312 336.715H387.312V334.715H387.312V336.715Z" fill="white" mask="url(#path-4-inside-1)"/>
</g>
<g id="chipInside">
<path id="Vector" d="M765.713 342.291H721.311C718.367 342.291 715.544 341.061 713.462 338.872C711.38 336.684 710.211 333.715 710.211 330.62C710.211 327.524 711.38 324.556 713.462 322.367C715.544 320.178 718.367 318.949 721.311 318.949H765.713C768.657 318.949 771.48 320.178 773.562 322.367C775.643 324.556 776.813 327.524 776.813 330.62C776.813 333.715 775.643 336.684 773.562 338.872C771.48 341.061 768.657 342.291 765.713 342.291Z" fill="white"/>
<path id="Vector_2" d="M765.713 379.638H721.311C718.367 379.638 715.544 378.409 713.462 376.22C711.38 374.031 710.211 371.062 710.211 367.967C710.211 364.872 711.38 361.903 713.462 359.714C715.544 357.526 718.367 356.296 721.311 356.296H765.713C768.657 356.296 771.48 357.526 773.562 359.714C775.643 361.903 776.813 364.872 776.813 367.967C776.813 371.062 775.643 374.031 773.562 376.22C771.48 378.409 768.657 379.638 765.713 379.638Z" fill="white"/>
<path id="Vector_3" d="M765.713 416.986H721.311C718.367 416.986 715.544 415.756 713.462 413.567C711.38 411.378 710.211 408.41 710.211 405.314C710.211 402.219 711.38 399.251 713.462 397.062C715.544 394.873 718.367 393.643 721.311 393.643H765.713C768.657 393.643 771.48 394.873 773.562 397.062C775.643 399.251 776.813 402.219 776.813 405.314C776.813 408.41 775.643 411.378 773.562 413.567C771.48 415.756 768.657 416.986 765.713 416.986Z" fill="white"/>
<path id="Vector_4" d="M843.415 342.291H799.014C796.07 342.291 793.246 341.061 791.165 338.872C789.083 336.684 787.913 333.715 787.913 330.62C787.913 327.524 789.083 324.556 791.165 322.367C793.246 320.178 796.07 318.949 799.014 318.949H843.415C846.359 318.949 849.182 320.178 851.264 322.367C853.346 324.556 854.515 327.524 854.515 330.62C854.515 333.715 853.346 336.684 851.264 338.872C849.182 341.061 846.359 342.291 843.415 342.291Z" fill="white"/>
<path id="Vector_5" d="M843.415 379.638H799.014C796.07 379.638 793.246 378.409 791.165 376.22C789.083 374.031 787.913 371.062 787.913 367.967C787.913 364.872 789.083 361.903 791.165 359.714C793.246 357.526 796.07 356.296 799.014 356.296H843.415C846.359 356.296 849.182 357.526 851.264 359.714C853.346 361.903 854.515 364.872 854.515 367.967C854.515 371.062 853.346 374.031 851.264 376.22C849.182 378.409 846.359 379.638 843.415 379.638Z" fill="white"/>
<path id="Vector_6" d="M843.415 416.986H799.014C796.07 416.986 793.246 415.756 791.165 413.567C789.083 411.378 787.913 408.41 787.913 405.314C787.913 402.219 789.083 399.251 791.165 397.062C793.246 394.873 796.07 393.643 799.014 393.643H843.415C846.359 393.643 849.182 394.873 851.264 397.062C853.346 399.251 854.515 402.219 854.515 405.314C854.515 408.41 853.346 411.378 851.264 413.567C849.182 415.756 846.359 416.986 843.415 416.986Z" fill="white"/>
</g>
<path id="Vector_7" d="M15.5 181.5V177.5H943.5V181.5H15.5Z" fill="white" stroke="white"/>
<path id="Vector_8" d="M870.771 568H85.2286C65.8139 567.977 47.2006 559.847 33.4724 545.395C19.7441 530.942 12.0219 511.347 12 490.908V89.0924C12.0219 68.6533 19.7441 49.058 33.4724 34.6054C47.2006 20.1527 65.8139 12.0231 85.2286 12H870.771C890.186 12.0231 908.799 20.1527 922.528 34.6054C936.256 49.058 943.978 68.6533 944 89.0924V490.908C943.978 511.347 936.256 530.942 922.528 545.395C908.799 559.847 890.186 567.977 870.771 568ZM85.2286 16.6723C66.9906 16.6941 49.5055 24.3311 36.6092 37.9078C23.713 51.4845 16.4588 69.8921 16.4381 89.0924V490.908C16.4588 510.108 23.713 528.516 36.6093 542.092C49.5055 555.669 66.9906 563.306 85.2286 563.328H870.771C889.009 563.306 906.495 555.669 919.391 542.092C932.287 528.516 939.541 510.108 939.562 490.908V89.0924C939.541 69.8921 932.287 51.4844 919.391 37.9077C906.495 24.331 889.009 16.694 870.771 16.6723H85.2286Z" fill="white"/>
<rect id="cardNo" x="55" y="221" width="514" height="78" rx="8" stroke="white" stroke-width="4"/>
<rect id="nameOnCard" x="55" y="448" width="514" height="78" rx="8" stroke="white" stroke-width="4"/>
<path id="validThruText" d="M289.1 355.436L284.492 368H281.432L276.824 355.436H279.524L282.98 365.426L286.418 355.436H289.1ZM298.315 365.606H293.311L292.483 368H289.837L294.355 355.418H297.289L301.807 368H299.143L298.315 365.606ZM297.631 363.59L295.813 358.334L293.995 363.59H297.631ZM306.016 366.002H310.156V368H303.496V355.436H306.016V366.002ZM314.278 355.436V368H311.758V355.436H314.278ZM321.159 355.436C322.479 355.436 323.637 355.694 324.633 356.21C325.641 356.726 326.415 357.464 326.955 358.424C327.507 359.372 327.783 360.476 327.783 361.736C327.783 362.996 327.507 364.1 326.955 365.048C326.415 365.984 325.641 366.71 324.633 367.226C323.637 367.742 322.479 368 321.159 368H316.767V355.436H321.159ZM321.069 365.858C322.389 365.858 323.409 365.498 324.129 364.778C324.849 364.058 325.209 363.044 325.209 361.736C325.209 360.428 324.849 359.408 324.129 358.676C323.409 357.932 322.389 357.56 321.069 357.56H319.287V365.858H321.069ZM288.605 382.436V384.47H285.257V395H282.737V384.47H279.389V382.436H288.605ZM300.866 382.436V395H298.346V389.654H292.964V395H290.444V382.436H292.964V387.602H298.346V382.436H300.866ZM309.826 395L307.054 390.104H305.866V395H303.346V382.436H308.062C309.034 382.436 309.862 382.61 310.546 382.958C311.23 383.294 311.74 383.756 312.076 384.344C312.424 384.92 312.598 385.568 312.598 386.288C312.598 387.116 312.358 387.866 311.878 388.538C311.398 389.198 310.684 389.654 309.736 389.906L312.742 395H309.826ZM305.866 388.214H307.972C308.656 388.214 309.166 388.052 309.502 387.728C309.838 387.392 310.006 386.93 310.006 386.342C310.006 385.766 309.838 385.322 309.502 385.01C309.166 384.686 308.656 384.524 307.972 384.524H305.866V388.214ZM317.362 382.436V390.212C317.362 391.064 317.584 391.718 318.028 392.174C318.472 392.618 319.096 392.84 319.9 392.84C320.716 392.84 321.346 392.618 321.79 392.174C322.234 391.718 322.456 391.064 322.456 390.212V382.436H324.994V390.194C324.994 391.262 324.76 392.168 324.292 392.912C323.836 393.644 323.218 394.196 322.438 394.568C321.67 394.94 320.812 395.126 319.864 395.126C318.928 395.126 318.076 394.94 317.308 394.568C316.552 394.196 315.952 393.644 315.508 392.912C315.064 392.168 314.842 391.262 314.842 390.194V382.436H317.362Z" fill="white"/>
<g id="mastercard 1" clip-path="url(#clip0)">
<path id="Vector_9" d="M845 102C845 119.829 829.4 134.4 809.9 134.4C790.586 134.4 774.8 119.829 774.8 102C774.8 84.1714 790.4 69.6 809.714 69.6C829.4 69.6 845 84.1714 845 102Z" fill="#FFB600"/>
<path id="Vector_10" d="M809.9 69.6C829.214 69.6 845 84.1714 845 102C845 119.829 829.4 134.4 809.9 134.4C790.586 134.4 774.8 119.829 774.8 102" fill="#F7981D"/>
<path id="Vector_11" d="M809.9 69.6C829.214 69.6 845 84.1714 845 102C845 119.829 829.4 134.4 809.9 134.4" fill="#FF8500"/>
<path id="Vector_12" d="M762.729 69.6C743.6 69.7714 728 84.1714 728 102C728 119.829 743.6 134.4 763.1 134.4C772.2 134.4 780.371 131.143 786.686 126C787.986 124.971 789.1 123.771 790.214 122.571H782.971C782.043 121.543 781.114 120.343 780.371 119.314H792.814C793.557 118.286 794.3 117.086 794.857 115.886H778.329C777.771 114.857 777.214 113.657 776.843 112.457H796.157C797.271 109.2 798.014 105.771 798.014 102.171C798.014 99.7714 797.643 97.5428 797.271 95.3143H775.729C775.914 94.1143 776.286 93.0857 776.657 91.8857H795.971C795.6 90.6857 795.043 89.4857 794.486 88.4571H778.143C778.7 87.2571 779.443 86.2286 780.186 85.0286H792.629C791.886 83.8286 790.957 82.6286 789.843 81.6H782.971C784.086 80.4 785.2 79.3714 786.5 78.3429C780.371 73.0286 772.014 69.9429 762.914 69.9429C762.914 69.6 762.914 69.6 762.729 69.6Z" fill="#FF5050"/>
<path id="Vector_13" d="M728 102C728 119.829 743.6 134.4 763.1 134.4C772.2 134.4 780.371 131.143 786.686 126C787.986 124.971 789.1 123.771 790.214 122.571H782.971C782.043 121.543 781.114 120.343 780.371 119.314H792.814C793.557 118.286 794.3 117.086 794.857 115.886H778.329C777.771 114.857 777.214 113.657 776.843 112.457H796.157C797.271 109.2 798.014 105.771 798.014 102.171C798.014 99.7714 797.643 97.5429 797.271 95.3143H775.729C775.914 94.1143 776.286 93.0857 776.657 91.8857H795.971C795.6 90.6857 795.043 89.4857 794.486 88.4572H778.143C778.7 87.2572 779.443 86.2286 780.186 85.0286H792.629C791.886 83.8286 790.957 82.6286 789.843 81.6H782.971C784.086 80.4 785.2 79.3714 786.5 78.3429C780.371 73.0286 772.014 69.9429 762.914 69.9429H762.729" fill="#E52836"/>
<path id="Vector_14" d="M763.1 134.4C772.2 134.4 780.371 131.143 786.686 126C787.986 124.971 789.1 123.771 790.214 122.571H782.971C782.043 121.543 781.114 120.343 780.371 119.314H792.814C793.557 118.286 794.3 117.086 794.857 115.886H778.329C777.771 114.857 777.214 113.657 776.843 112.457H796.157C797.271 109.2 798.014 105.771 798.014 102.171C798.014 99.7714 797.643 97.5429 797.271 95.3143H775.729C775.914 94.1143 776.286 93.0857 776.657 91.8857H795.971C795.6 90.6857 795.043 89.4857 794.486 88.4572H778.143C778.7 87.2572 779.443 86.2286 780.186 85.0286H792.629C791.886 83.8286 790.957 82.6286 789.843 81.6H782.971C784.086 80.4 785.2 79.3714 786.5 78.3429C780.371 73.0286 772.014 69.9429 762.914 69.9429H762.729" fill="#CB2026"/>
<g id="Group">
<path id="Vector_15" d="M775.543 110.229L776.1 107.314C775.914 107.314 775.543 107.486 775.171 107.486C773.871 107.486 773.686 106.8 773.871 106.457L774.986 100.457H777.029L777.586 97.2H775.729L776.1 95.1429H772.386C772.386 95.1429 770.157 106.457 770.157 107.829C770.157 109.886 771.457 110.743 773.129 110.743C774.243 110.743 775.171 110.4 775.543 110.229Z" fill="white"/>
<path id="Vector_16" d="M776.843 104.743C776.843 109.543 780.371 110.743 783.343 110.743C786.129 110.743 787.243 110.229 787.243 110.229L787.986 106.971C787.986 106.971 785.943 107.829 784.086 107.829C780 107.829 780.743 105.086 780.743 105.086H788.357C788.357 105.086 788.914 102.857 788.914 102C788.914 99.7714 787.614 97.0286 783.529 97.0286C779.629 96.6857 776.843 100.457 776.843 104.743ZM783.343 99.7715C785.386 99.7715 785.014 102 785.014 102.171H780.929C780.929 102 781.3 99.7715 783.343 99.7715Z" fill="white"/>
<path id="Vector_17" d="M806.929 110.229L807.671 106.457C807.671 106.457 805.814 107.314 804.514 107.314C801.914 107.314 800.8 105.429 800.8 103.371C800.8 99.2571 803.029 97.0286 805.629 97.0286C807.486 97.0286 808.971 98.0572 808.971 98.0572L809.529 94.4571C809.529 94.4571 807.3 93.6 805.257 93.6C800.986 93.6 796.714 97.0286 796.714 103.543C796.714 107.829 798.943 110.743 803.4 110.743C804.886 110.743 806.929 110.229 806.929 110.229Z" fill="white"/>
<path id="Vector_18" d="M755.114 96.6857C752.514 96.6857 750.657 97.3714 750.657 97.3714L750.1 100.286C750.1 100.286 751.771 99.6 754.186 99.6C755.486 99.6 756.6 99.7714 756.6 100.8C756.6 101.486 756.414 101.657 756.414 101.657C756.414 101.657 755.3 101.657 754.743 101.657C751.586 101.657 748.057 102.857 748.057 106.8C748.057 109.886 750.286 110.571 751.586 110.571C754.186 110.571 755.3 109.029 755.486 109.029L755.3 110.4H758.643L760.129 100.971C760.129 96.8572 756.414 96.6857 755.114 96.6857ZM755.857 104.4C755.857 104.914 755.486 107.657 753.257 107.657C752.143 107.657 751.771 106.8 751.771 106.286C751.771 105.429 752.329 104.229 755.114 104.229C755.671 104.4 755.857 104.4 755.857 104.4Z" fill="white"/>
<path id="Vector_19" d="M763.657 110.571C764.586 110.571 769.229 110.743 769.229 106.114C769.229 101.829 764.771 102.686 764.771 100.971C764.771 100.114 765.514 99.7714 766.814 99.7714C767.371 99.7714 769.414 99.9429 769.414 99.9429L769.971 96.8571C769.971 96.8571 768.671 96.5143 766.443 96.5143C763.657 96.5143 760.871 97.5429 760.871 100.971C760.871 104.914 765.514 104.571 765.514 106.114C765.514 107.143 764.214 107.314 763.286 107.314C761.614 107.314 759.943 106.8 759.943 106.8L759.386 109.886C759.571 110.229 760.5 110.571 763.657 110.571Z" fill="white"/>
<path id="Vector_20" d="M837.757 93.9429L837.014 98.5714C837.014 98.5714 835.529 96.8572 833.486 96.8572C830.143 96.8572 827.171 100.629 827.171 105.086C827.171 107.829 828.657 110.743 831.814 110.743C834.043 110.743 835.343 109.371 835.343 109.371L835.157 110.571H838.871L841.657 94.1143L837.757 93.9429ZM836.086 103.029C836.086 104.914 835.157 107.314 833.114 107.314C831.814 107.314 831.071 106.286 831.071 104.571C831.071 101.829 832.371 100.114 834.043 100.114C835.343 100.114 836.086 100.971 836.086 103.029Z" fill="white"/>
<path id="Vector_21" d="M734.871 110.401L737.1 98.0583L737.471 110.401H740.071L744.9 98.0583L742.857 110.401H746.757L749.729 93.944H743.6L739.886 104.058L739.7 93.944H734.314L731.343 110.401H734.871Z" fill="white"/>
<path id="Vector_22" d="M792.443 110.4C793.557 104.743 793.743 100.114 796.343 100.971C796.714 98.7428 797.271 97.8857 797.643 97.0286C797.643 97.0286 797.457 97.0286 796.9 97.0286C795.229 97.0286 793.929 99.0857 793.929 99.0857L794.3 97.2H790.771L788.357 110.571H792.443V110.4Z" fill="white"/>
<path id="Vector_23" d="M815.471 96.6857C812.871 96.6857 811.014 97.3714 811.014 97.3714L810.457 100.286C810.457 100.286 812.129 99.6 814.543 99.6C815.843 99.6 816.957 99.7714 816.957 100.8C816.957 101.486 816.771 101.657 816.771 101.657C816.771 101.657 815.657 101.657 815.1 101.657C811.943 101.657 808.414 102.857 808.414 106.8C808.414 109.886 810.643 110.571 811.943 110.571C814.543 110.571 815.657 109.029 815.843 109.029L815.657 110.4H819L820.486 100.971C820.671 96.8572 816.771 96.6857 815.471 96.6857ZM816.4 104.4C816.4 104.914 816.029 107.657 813.8 107.657C812.686 107.657 812.314 106.8 812.314 106.286C812.314 105.429 812.871 104.229 815.657 104.229C816.214 104.4 816.214 104.4 816.4 104.4Z" fill="white"/>
<path id="Vector_24" d="M823.643 110.4C824.757 104.743 824.943 100.114 827.543 100.971C827.914 98.7428 828.471 97.8857 828.843 97.0286C828.843 97.0286 828.657 97.0286 828.1 97.0286C826.429 97.0286 825.129 99.0857 825.129 99.0857L825.5 97.2H821.971L819.557 110.571H823.643V110.4Z" fill="white"/>
</g>
<g id="Group_2">
<path id="Vector_25" d="M769.786 107.829C769.786 109.886 771.086 110.743 772.757 110.743C774.057 110.743 775.171 110.4 775.543 110.229L776.1 107.314C775.914 107.314 775.543 107.486 775.171 107.486C773.871 107.486 773.686 106.8 773.871 106.457L774.986 100.457H777.029L777.586 97.2H775.729L776.1 95.1429" fill="#DCE5E5"/>
<path id="Vector_26" d="M778.7 104.743C778.7 109.543 780.371 110.743 783.343 110.743C786.129 110.743 787.243 110.229 787.243 110.229L787.986 106.971C787.986 106.971 785.943 107.829 784.086 107.829C780 107.829 780.743 105.086 780.743 105.086H788.357C788.357 105.086 788.914 102.857 788.914 102C788.914 99.7714 787.614 97.0286 783.529 97.0286C779.629 96.6857 778.7 100.457 778.7 104.743ZM783.343 99.7715C785.386 99.7715 785.757 102 785.757 102.171H780.929C780.929 102 781.3 99.7715 783.343 99.7715Z" fill="#DCE5E5"/>
<path id="Vector_27" d="M806.929 110.229L807.671 106.457C807.671 106.457 805.814 107.314 804.514 107.314C801.914 107.314 800.8 105.429 800.8 103.371C800.8 99.2571 803.029 97.0286 805.629 97.0286C807.486 97.0286 808.971 98.0572 808.971 98.0572L809.529 94.4571C809.529 94.4571 807.3 93.6 805.257 93.6C800.986 93.6 798.571 97.0286 798.571 103.543C798.571 107.829 798.943 110.743 803.4 110.743C804.886 110.743 806.929 110.229 806.929 110.229Z" fill="#DCE5E5"/>
<path id="Vector_28" d="M750.1 100.457C750.1 100.457 751.771 99.7714 754.186 99.7714C755.486 99.7714 756.6 99.9428 756.6 100.971C756.6 101.657 756.414 101.829 756.414 101.829C756.414 101.829 755.3 101.829 754.743 101.829C751.586 101.829 748.057 103.029 748.057 106.971C748.057 110.057 750.286 110.743 751.586 110.743C754.186 110.743 755.3 109.2 755.486 109.2L755.3 110.571H758.643L760.129 101.143C760.129 97.2 756.414 97.0286 754.929 97.0286L750.1 100.457ZM757.714 104.4C757.714 104.914 755.486 107.657 753.257 107.657C752.143 107.657 751.771 106.8 751.771 106.286C751.771 105.429 752.329 104.229 755.114 104.229C755.671 104.4 757.714 104.4 757.714 104.4Z" fill="#DCE5E5"/>
<path id="Vector_29" d="M759.571 110.229C759.571 110.229 760.686 110.571 763.843 110.571C764.771 110.571 769.414 110.743 769.414 106.114C769.414 101.829 764.957 102.686 764.957 100.971C764.957 100.114 765.7 99.7714 767 99.7714C767.557 99.7714 769.6 99.9429 769.6 99.9429L770.157 96.8571C770.157 96.8571 768.857 96.5143 766.629 96.5143C763.843 96.5143 762.914 97.5429 762.914 100.971C762.914 104.914 765.7 104.571 765.7 106.114C765.7 107.143 764.4 107.314 763.471 107.314" fill="#DCE5E5"/>
<path id="Vector_30" d="M837.014 98.5714C837.014 98.5714 835.529 96.8571 833.486 96.8571C830.143 96.8571 829.029 100.629 829.029 105.086C829.029 107.829 828.657 110.743 831.814 110.743C834.043 110.743 835.343 109.371 835.343 109.371L835.157 110.571H838.871L841.657 94.1143L837.014 98.5714ZM836.829 103.029C836.829 104.914 835.157 107.314 833.114 107.314C831.814 107.314 831.071 106.286 831.071 104.571C831.071 101.829 832.371 100.114 834.043 100.114C835.343 100.114 836.829 100.971 836.829 103.029Z" fill="#DCE5E5"/>
<path id="Vector_31" d="M734.871 110.401L737.1 98.0583L737.471 110.401H740.071L744.9 98.0583L742.857 110.401H746.757L749.729 93.944H745.086L739.886 104.058L739.7 93.944H737.657L731.343 110.401H734.871Z" fill="#DCE5E5"/>
<path id="Vector_32" d="M788.543 110.4H792.443C793.557 104.743 793.743 100.114 796.343 100.971C796.714 98.7428 797.271 97.8857 797.643 97.0286C797.643 97.0286 797.457 97.0286 796.9 97.0286C795.229 97.0286 793.929 99.0857 793.929 99.0857L794.3 97.2" fill="#DCE5E5"/>
<path id="Vector_33" d="M810.457 100.457C810.457 100.457 812.129 99.7714 814.543 99.7714C815.843 99.7714 816.957 99.9428 816.957 100.971C816.957 101.657 816.771 101.829 816.771 101.829C816.771 101.829 815.657 101.829 815.1 101.829C811.943 101.829 808.414 103.029 808.414 106.971C808.414 110.057 810.643 110.743 811.943 110.743C814.543 110.743 815.657 109.2 815.843 109.2L815.657 110.571H819L820.486 101.143C820.486 97.2 816.771 97.0286 815.286 97.0286L810.457 100.457ZM818.071 104.4C818.071 104.914 815.843 107.657 813.614 107.657C812.5 107.657 812.129 106.8 812.129 106.286C812.129 105.429 812.686 104.229 815.471 104.229C816.214 104.4 818.071 104.4 818.071 104.4Z" fill="#DCE5E5"/>
<path id="Vector_34" d="M819.743 110.4H823.643C824.757 104.743 824.943 100.114 827.543 100.971C827.914 98.7428 828.471 97.8857 828.843 97.0286C828.843 97.0286 828.657 97.0286 828.1 97.0286C826.429 97.0286 825.129 99.0857 825.129 99.0857L825.5 97.2" fill="#DCE5E5"/>
</g>
</g>
<g id="visa 1">
<path id="Vector_35" d="M769.633 121.663L775.678 88.5206H785.122L779.267 121.663H769.633Z" fill="#3C58BF"/>
<path id="Vector_36" d="M769.633 121.663L777.378 88.5206H785.122L779.267 121.663H769.633Z" fill="#293688"/>
<path id="Vector_37" d="M813.456 88.8889C811.567 88.1524 808.544 87.4159 804.767 87.4159C795.322 87.4159 788.522 92.019 788.522 98.6476C788.522 103.619 793.244 106.197 797.022 107.854C800.8 109.511 801.933 110.616 801.933 112.089C801.933 114.298 798.911 115.403 796.267 115.403C792.489 115.403 790.411 114.851 787.2 113.562L785.878 113.01L784.556 120.559C786.822 121.479 790.978 122.4 795.322 122.4C805.333 122.4 811.944 117.797 811.944 110.8C811.944 106.933 809.489 103.987 803.822 101.594C800.422 99.9365 798.344 99.0159 798.344 97.3587C798.344 95.8857 800.044 94.4127 803.822 94.4127C807.033 94.4127 809.3 94.9651 811 95.7016L811.944 96.0698L813.456 88.8889Z" fill="#3C58BF"/>
<path id="Vector_38" d="M813.456 88.8889C811.567 88.1524 808.544 87.4159 804.767 87.4159C795.322 87.4159 790.222 92.019 790.222 98.6476C790.222 103.619 793.244 106.197 797.022 107.854C800.8 109.511 801.933 110.616 801.933 112.089C801.933 114.298 798.911 115.403 796.267 115.403C792.489 115.403 790.411 114.851 787.2 113.562L785.878 113.01L784.556 120.559C786.822 121.479 790.978 122.4 795.322 122.4C805.333 122.4 811.944 117.797 811.944 110.8C811.944 106.933 809.489 103.987 803.822 101.594C800.422 99.9365 798.344 99.0159 798.344 97.3587C798.344 95.8857 800.044 94.4127 803.822 94.4127C807.033 94.4127 809.3 94.9651 811 95.7016L811.944 96.0698L813.456 88.8889Z" fill="#293688"/>
<path id="Vector_39" d="M829.7 88.5206C827.433 88.5206 825.733 88.7048 824.789 90.9143L810.622 121.663H820.822L822.711 116.14H834.8L835.933 121.663H845L837.067 88.5206H829.7ZM825.356 110.616C825.922 108.959 829.133 100.857 829.133 100.857C829.133 100.857 829.889 98.8317 830.456 97.5429L831.022 100.673C831.022 100.673 832.911 108.959 833.289 110.8H825.356V110.616Z" fill="#3C58BF"/>
<path id="Vector_40" d="M831.967 88.5206C829.7 88.5206 828 88.7048 827.056 90.9143L810.622 121.663H820.822L822.711 116.14H834.8L835.933 121.663H845L837.067 88.5206H831.967ZM825.356 110.616C826.111 108.775 829.133 100.857 829.133 100.857C829.133 100.857 829.889 98.8317 830.456 97.5429L831.022 100.673C831.022 100.673 832.911 108.959 833.289 110.8H825.356V110.616Z" fill="#293688"/>
<path id="Vector_41" d="M752.256 111.721L751.311 106.933C749.611 101.41 744.133 95.3333 738.089 92.3873L746.589 121.848H756.789L772.089 88.7048H761.889L752.256 111.721Z" fill="#3C58BF"/>
<path id="Vector_42" d="M752.256 111.721L751.311 106.933C749.611 101.41 744.133 95.3333 738.089 92.3873L746.589 121.848H756.789L772.089 88.7048H763.778L752.256 111.721Z" fill="#293688"/>
<path id="Vector_43" d="M726 88.5206L727.7 88.8889C739.789 91.6508 748.1 98.6476 751.311 106.933L747.911 91.2825C747.344 89.073 745.644 88.5206 743.567 88.5206H726Z" fill="#FFBC00"/>
<path id="Vector_44" d="M726 88.5206C738.089 91.2825 748.1 98.4635 751.311 106.749L748.1 93.6762C747.533 91.4667 745.644 90.1778 743.567 90.1778L726 88.5206Z" fill="#F7981D"/>
<path id="Vector_45" d="M726 88.5206C738.089 91.2825 748.1 98.4635 751.311 106.749L749.044 99.5683C748.478 97.3587 747.722 95.1492 745.078 94.2286L726 88.5206Z" fill="#ED7C00"/>
<g id="Group_3">
<path id="Vector_46" d="M761.7 110.616L755.278 104.356L752.256 111.352L751.5 106.749C749.8 101.225 744.322 95.1492 738.278 92.2032L746.778 121.663H756.978L761.7 110.616Z" fill="#051244"/>
<path id="Vector_47" d="M779.267 121.664L771.144 113.562L769.633 121.664H779.267Z" fill="#051244"/>
<path id="Vector_48" d="M800.989 110.248C801.744 110.984 802.122 111.537 801.933 112.273C801.933 114.483 798.911 115.587 796.267 115.587C792.489 115.587 790.411 115.035 787.2 113.746L785.878 113.194L784.556 120.743C786.822 121.664 790.978 122.584 795.322 122.584C801.367 122.584 806.278 120.927 809.111 117.981L800.989 110.248Z" fill="#051244"/>
<path id="Vector_49" d="M811.944 121.663H820.822L822.711 116.14H834.8L835.933 121.663H845L841.789 108.222L830.456 97.5429L831.022 100.489C831.022 100.489 832.911 108.775 833.289 110.616H825.356C826.111 108.775 829.133 100.857 829.133 100.857C829.133 100.857 829.889 98.8318 830.456 97.5429" fill="#051244"/>
</g>
</g>
</g>
<defs>
<clipPath id="clip0">
<rect width="117" height="108" fill="white" transform="translate(728 48)"/>
</clipPath>
</defs>
</svg>
